<svg xmlns="http://www.w3.org/2000/svg" xmlns:xlink="http://www.w3.org/1999/xlink" width="441" zoomAndPan="magnify" viewBox="0 0 330.75 79.499998" height="106" preserveAspectRatio="xMidYMid meet" version="1.0"><defs><g/><clipPath id="4c5bdb6226"><path d="M 29 21 L 65 21 L 65 57.273438 L 29 57.273438 Z M 29 21 " clip-rule="nonzero"/></clipPath></defs><path stroke-linecap="butt" transform="matrix(0.204961, 0, 0, 0.204961, 0.90938, 20.754686)" fill="none" stroke-linejoin="round" d="M 72.006846 50.996774 L 185.004766 50.996774 " stroke="#000000" stroke-width="18" stroke-opacity="1" stroke-miterlimit="4"/><path stroke-linecap="butt" transform="matrix(0.204961, 0, 0, 0.204961, 0.90938, 36.74164)" fill="none" stroke-linejoin="round" d="M 72.006846 51.00325 L 185.004766 51.00325 " stroke="#3add3a" stroke-width="18" stroke-opacity="1" stroke-miterlimit="4"/><path stroke-linecap="butt" transform="matrix(0.204961, 0, 0, 0.204961, 41.199716, 28.748162)" fill="none" stroke-linejoin="round" d="M 72.000631 50.990488 L 184.998551 50.990488 " stroke="#3add3a" stroke-width="18" stroke-opacity="1" stroke-miterlimit="4"/><path fill="#ffffff" d="M 31.242188 55.445312 C 31.214844 55.445312 39.648438 53.921875 39.648438 39.199219 C 39.648438 24.335938 31.242188 22.957031 31.242188 22.957031 C 44.824219 24.445312 53.667969 22.339844 63.011719 39.199219 C 56.042969 54.109375 46.90625 54.820312 31.242188 55.445312 Z M 31.242188 55.445312 " fill-opacity="1" fill-rule="evenodd"/><g clip-path="url(#4c5bdb6226)"><path stroke-linecap="butt" transform="matrix(0.204961, 0, 0, 0.204961, 0.90938, 20.754686)" fill="none" stroke-linejoin="round" d="M 147.993135 169.254843 C 147.859725 169.254843 189.007053 161.822023 189.007053 89.99049 C 189.007053 17.472851 147.993135 10.745196 147.993135 10.745196 C 214.259582 18.006489 257.408054 7.733951 302.996016 89.99049 C 268.99563 162.736832 224.417769 166.205481 147.993135 169.254843 Z M 147.993135 169.254843 " stroke="#000000" stroke-width="18" stroke-opacity="1" stroke-miterlimit="4"/></g><g fill="#000000" fill-opacity="1"><g transform="translate(88.023984, 52.088258)"><g><path d="M 2.59375 0 L 2.59375 -28.953125 L 8.359375 -28.953125 L 8.359375 0 Z M 2.59375 0 "/></g></g></g><g fill="#000000" fill-opacity="1"><g transform="translate(98.987251, 52.088258)"><g><path d="M 12.296875 0.5625 C 10.160156 0.5625 8.28125 0.140625 6.65625 -0.703125 C 5.03125 -1.554688 3.757812 -2.816406 2.84375 -4.484375 C 1.925781 -6.148438 1.46875 -8.226562 1.46875 -10.71875 C 1.46875 -13.207031 1.929688 -15.273438 2.859375 -16.921875 C 3.796875 -18.578125 5.078125 -19.816406 6.703125 -20.640625 C 8.328125 -21.472656 10.179688 -21.890625 12.265625 -21.890625 C 14.398438 -21.890625 16.28125 -21.46875 17.90625 -20.625 C 19.53125 -19.789062 20.804688 -18.539062 21.734375 -16.875 C 22.671875 -15.207031 23.140625 -13.128906 23.140625 -10.640625 C 23.140625 -8.097656 22.664062 -6 21.71875 -4.34375 C 20.769531 -2.695312 19.46875 -1.46875 17.8125 -0.65625 C 16.164062 0.15625 14.328125 0.5625 12.296875 0.5625 Z M 12.46875 -3.78125 C 13.113281 -3.78125 13.71875 -3.882812 14.28125 -4.09375 C 14.851562 -4.3125 15.363281 -4.671875 15.8125 -5.171875 C 16.257812 -5.671875 16.613281 -6.347656 16.875 -7.203125 C 17.132812 -8.054688 17.265625 -9.09375 17.265625 -10.3125 C 17.265625 -11.613281 17.117188 -12.707031 16.828125 -13.59375 C 16.546875 -14.488281 16.164062 -15.210938 15.6875 -15.765625 C 15.21875 -16.328125 14.671875 -16.726562 14.046875 -16.96875 C 13.421875 -17.21875 12.773438 -17.34375 12.109375 -17.34375 C 11.484375 -17.34375 10.878906 -17.234375 10.296875 -17.015625 C 9.710938 -16.796875 9.203125 -16.4375 8.765625 -15.9375 C 8.335938 -15.4375 7.988281 -14.765625 7.71875 -13.921875 C 7.445312 -13.085938 7.3125 -12.046875 7.3125 -10.796875 C 7.3125 -9.503906 7.445312 -8.410156 7.71875 -7.515625 C 7.988281 -6.617188 8.363281 -5.890625 8.84375 -5.328125 C 9.332031 -4.773438 9.890625 -4.378906 10.515625 -4.140625 C 11.140625 -3.898438 11.789062 -3.78125 12.46875 -3.78125 Z M 12.46875 -3.78125 "/></g></g></g><g fill="#000000" fill-opacity="1"><g transform="translate(123.553086, 52.088258)"><g><path d="M 11.046875 7.34375 C 8.691406 7.34375 6.769531 7.160156 5.28125 6.796875 C 3.789062 6.429688 2.695312 5.894531 2 5.1875 C 1.3125 4.488281 0.96875 3.625 0.96875 2.59375 C 0.96875 1.351562 1.457031 0.34375 2.4375 -0.4375 C 3.414062 -1.226562 4.878906 -1.707031 6.828125 -1.875 L 6.828125 -2.640625 C 5.335938 -2.640625 4.207031 -2.800781 3.4375 -3.125 C 2.664062 -3.445312 2.28125 -4.003906 2.28125 -4.796875 C 2.28125 -5.546875 2.65625 -6.21875 3.40625 -6.8125 C 4.164062 -7.414062 5.441406 -7.878906 7.234375 -8.203125 L 7.234375 -8.96875 C 5.578125 -9.101562 4.273438 -9.660156 3.328125 -10.640625 C 2.378906 -11.617188 1.90625 -12.878906 1.90625 -14.421875 C 1.90625 -15.773438 2.285156 -16.984375 3.046875 -18.046875 C 3.804688 -19.117188 4.929688 -19.972656 6.421875 -20.609375 C 7.910156 -21.242188 9.738281 -21.5625 11.90625 -21.5625 L 22.703125 -21.5625 L 22.703125 -17.0625 L 15.921875 -17.984375 L 15.921875 -17.140625 C 17.679688 -16.867188 18.953125 -16.414062 19.734375 -15.78125 C 20.515625 -15.144531 20.90625 -14.285156 20.90625 -13.203125 C 20.90625 -12.085938 20.546875 -11.109375 19.828125 -10.265625 C 19.117188 -9.429688 18.09375 -8.773438 16.75 -8.296875 C 15.40625 -7.828125 13.789062 -7.59375 11.90625 -7.59375 C 11.550781 -7.59375 11.160156 -7.613281 10.734375 -7.65625 C 10.316406 -7.695312 9.660156 -7.769531 8.765625 -7.875 C 8.253906 -7.46875 7.847656 -7.128906 7.546875 -6.859375 C 7.253906 -6.585938 7.109375 -6.332031 7.109375 -6.09375 C 7.109375 -5.90625 7.207031 -5.75 7.40625 -5.625 C 7.613281 -5.5 7.878906 -5.410156 8.203125 -5.359375 C 8.523438 -5.304688 8.863281 -5.28125 9.21875 -5.28125 L 15.34375 -5.28125 C 15.882812 -5.28125 16.585938 -5.238281 17.453125 -5.15625 C 18.328125 -5.070312 19.195312 -4.859375 20.0625 -4.515625 C 20.925781 -4.179688 21.65625 -3.628906 22.25 -2.859375 C 22.84375 -2.085938 23.140625 -0.984375 23.140625 0.453125 C 23.140625 2.015625 22.695312 3.300781 21.8125 4.3125 C 20.9375 5.332031 19.601562 6.09375 17.8125 6.59375 C 16.03125 7.09375 13.773438 7.34375 11.046875 7.34375 Z M 11.65625 2.640625 C 13.300781 2.640625 14.59375 2.550781 15.53125 2.375 C 16.46875 2.195312 17.125 1.914062 17.5 1.53125 C 17.882812 1.15625 18.078125 0.6875 18.078125 0.125 C 18.078125 -0.414062 17.953125 -0.832031 17.703125 -1.125 C 17.460938 -1.425781 17.164062 -1.640625 16.8125 -1.765625 C 16.457031 -1.890625 16.085938 -1.960938 15.703125 -1.984375 C 15.328125 -2.015625 15.019531 -2.03125 14.78125 -2.03125 L 9.625 -2.03125 C 8.488281 -1.925781 7.675781 -1.628906 7.1875 -1.140625 C 6.695312 -0.648438 6.453125 -0.0820312 6.453125 0.5625 C 6.453125 1.101562 6.640625 1.523438 7.015625 1.828125 C 7.398438 2.128906 7.976562 2.335938 8.75 2.453125 C 9.519531 2.578125 10.488281 2.640625 11.65625 2.640625 Z M 11.609375 -10.6875 C 12.878906 -10.6875 13.835938 -11.003906 14.484375 -11.640625 C 15.140625 -12.273438 15.46875 -13.09375 15.46875 -14.09375 C 15.46875 -15.175781 15.132812 -16.066406 14.46875 -16.765625 C 13.8125 -17.472656 12.859375 -17.828125 11.609375 -17.828125 C 10.367188 -17.828125 9.398438 -17.476562 8.703125 -16.78125 C 8.015625 -16.09375 7.671875 -15.207031 7.671875 -14.125 C 7.671875 -13.445312 7.828125 -12.84375 8.140625 -12.3125 C 8.453125 -11.789062 8.898438 -11.390625 9.484375 -11.109375 C 10.066406 -10.828125 10.773438 -10.6875 11.609375 -10.6875 Z M 11.609375 -10.6875 "/></g></g></g><g fill="#000000" fill-opacity="1"><g transform="translate(147.753487, 52.088258)"><g><path d="M 2.59375 0 L 2.59375 -21.3125 L 8.453125 -21.3125 L 8.453125 0 Z M 5.515625 -24.40625 C 4.378906 -24.40625 3.503906 -24.648438 2.890625 -25.140625 C 2.285156 -25.628906 1.984375 -26.320312 1.984375 -27.21875 C 1.984375 -28.164062 2.285156 -28.878906 2.890625 -29.359375 C 3.503906 -29.847656 4.378906 -30.09375 5.515625 -30.09375 C 6.679688 -30.09375 7.566406 -29.847656 8.171875 -29.359375 C 8.785156 -28.878906 9.09375 -28.164062 9.09375 -27.21875 C 9.09375 -26.320312 8.785156 -25.628906 8.171875 -25.140625 C 7.566406 -24.648438 6.679688 -24.40625 5.515625 -24.40625 Z M 5.515625 -24.40625 "/></g></g></g><g fill="#000000" fill-opacity="1"><g transform="translate(158.797966, 52.088258)"><g><path d="M 11.171875 0.5625 C 9.734375 0.5625 8.429688 0.425781 7.265625 0.15625 C 6.097656 -0.113281 5.09375 -0.507812 4.25 -1.03125 C 3.414062 -1.5625 2.742188 -2.195312 2.234375 -2.9375 C 1.722656 -3.6875 1.398438 -4.519531 1.265625 -5.4375 L 5.765625 -7.140625 C 5.867188 -6.546875 6.15625 -5.984375 6.625 -5.453125 C 7.101562 -4.929688 7.75 -4.515625 8.5625 -4.203125 C 9.375 -3.890625 10.363281 -3.734375 11.53125 -3.734375 C 12.75 -3.734375 13.695312 -3.914062 14.375 -4.28125 C 15.050781 -4.644531 15.390625 -5.164062 15.390625 -5.84375 C 15.390625 -6.363281 15.195312 -6.769531 14.8125 -7.0625 C 14.4375 -7.363281 13.890625 -7.617188 13.171875 -7.828125 C 12.460938 -8.046875 11.59375 -8.253906 10.5625 -8.453125 C 9.53125 -8.691406 8.492188 -8.953125 7.453125 -9.234375 C 6.410156 -9.523438 5.445312 -9.910156 4.5625 -10.390625 C 3.6875 -10.878906 2.976562 -11.515625 2.4375 -12.296875 C 1.894531 -13.085938 1.625 -14.09375 1.625 -15.3125 C 1.625 -16.632812 1.972656 -17.78125 2.671875 -18.75 C 3.378906 -19.726562 4.414062 -20.492188 5.78125 -21.046875 C 7.15625 -21.609375 8.800781 -21.890625 10.71875 -21.890625 C 12.476562 -21.890625 14.019531 -21.648438 15.34375 -21.171875 C 16.675781 -20.703125 17.757812 -20.015625 18.59375 -19.109375 C 19.4375 -18.203125 19.992188 -17.113281 20.265625 -15.84375 L 15.515625 -14.328125 C 15.398438 -15.003906 15.140625 -15.59375 14.734375 -16.09375 C 14.328125 -16.601562 13.78125 -16.976562 13.09375 -17.21875 C 12.40625 -17.457031 11.601562 -17.578125 10.6875 -17.578125 C 9.539062 -17.578125 8.648438 -17.390625 8.015625 -17.015625 C 7.378906 -16.640625 7.0625 -16.140625 7.0625 -15.515625 C 7.0625 -14.992188 7.269531 -14.570312 7.6875 -14.25 C 8.113281 -13.925781 8.695312 -13.660156 9.4375 -13.453125 C 10.1875 -13.253906 11.078125 -13.046875 12.109375 -12.828125 C 13.179688 -12.609375 14.222656 -12.359375 15.234375 -12.078125 C 16.253906 -11.796875 17.1875 -11.425781 18.03125 -10.96875 C 18.875 -10.507812 19.546875 -9.898438 20.046875 -9.140625 C 20.546875 -8.378906 20.796875 -7.390625 20.796875 -6.171875 C 20.796875 -4.765625 20.414062 -3.5625 19.65625 -2.5625 C 18.894531 -1.5625 17.796875 -0.789062 16.359375 -0.25 C 14.929688 0.289062 13.203125 0.5625 11.171875 0.5625 Z M 11.171875 0.5625 "/></g></g></g><g fill="#000000" fill-opacity="1"><g transform="translate(180.805727, 52.088258)"><g><path d="M 2.59375 0 L 2.59375 -21.3125 L 8.453125 -21.3125 L 8.453125 0 Z M 5.515625 -24.40625 C 4.378906 -24.40625 3.503906 -24.648438 2.890625 -25.140625 C 2.285156 -25.628906 1.984375 -26.320312 1.984375 -27.21875 C 1.984375 -28.164062 2.285156 -28.878906 2.890625 -29.359375 C 3.503906 -29.847656 4.378906 -30.09375 5.515625 -30.09375 C 6.679688 -30.09375 7.566406 -29.847656 8.171875 -29.359375 C 8.785156 -28.878906 9.09375 -28.164062 9.09375 -27.21875 C 9.09375 -26.320312 8.785156 -25.628906 8.171875 -25.140625 C 7.566406 -24.648438 6.679688 -24.40625 5.515625 -24.40625 Z M 5.515625 -24.40625 "/></g></g></g><g fill="#000000" fill-opacity="1"><g transform="translate(191.850206, 52.088258)"><g><path d="M 2.59375 0 L 2.59375 -21.3125 L 7.3125 -21.3125 L 7.265625 -14.703125 L 8.046875 -14.703125 C 8.390625 -16.347656 8.863281 -17.695312 9.46875 -18.75 C 10.082031 -19.8125 10.835938 -20.597656 11.734375 -21.109375 C 12.628906 -21.628906 13.671875 -21.890625 14.859375 -21.890625 C 15.804688 -21.890625 16.628906 -21.722656 17.328125 -21.390625 C 18.035156 -21.066406 18.632812 -20.609375 19.125 -20.015625 C 19.613281 -19.421875 20 -18.675781 20.28125 -17.78125 C 20.5625 -16.894531 20.742188 -15.878906 20.828125 -14.734375 L 21.484375 -14.734375 C 21.859375 -16.390625 22.382812 -17.742188 23.0625 -18.796875 C 23.738281 -19.859375 24.5625 -20.640625 25.53125 -21.140625 C 26.507812 -21.640625 27.582031 -21.890625 28.75 -21.890625 C 30.101562 -21.890625 31.21875 -21.609375 32.09375 -21.046875 C 32.976562 -20.492188 33.664062 -19.773438 34.15625 -18.890625 C 34.644531 -18.015625 35.007812 -17.082031 35.25 -16.09375 C 35.488281 -15.113281 35.632812 -14.15625 35.6875 -13.21875 C 35.75 -12.28125 35.78125 -11.515625 35.78125 -10.921875 L 35.78125 0 L 29.921875 0 L 29.921875 -10.234375 C 29.921875 -10.742188 29.898438 -11.367188 29.859375 -12.109375 C 29.828125 -12.859375 29.703125 -13.59375 29.484375 -14.3125 C 29.265625 -15.03125 28.914062 -15.632812 28.4375 -16.125 C 27.96875 -16.613281 27.316406 -16.859375 26.484375 -16.859375 C 25.609375 -16.859375 24.835938 -16.550781 24.171875 -15.9375 C 23.515625 -15.332031 23.003906 -14.492188 22.640625 -13.421875 C 22.273438 -12.347656 22.078125 -11.082031 22.046875 -9.625 L 22.046875 0 L 16.328125 0 L 16.328125 -10.03125 C 16.328125 -10.519531 16.304688 -11.140625 16.265625 -11.890625 C 16.222656 -12.648438 16.09375 -13.410156 15.875 -14.171875 C 15.65625 -14.929688 15.304688 -15.566406 14.828125 -16.078125 C 14.359375 -16.597656 13.679688 -16.859375 12.796875 -16.859375 C 11.929688 -16.859375 11.171875 -16.550781 10.515625 -15.9375 C 9.867188 -15.332031 9.367188 -14.488281 9.015625 -13.40625 C 8.660156 -12.320312 8.472656 -11.0625 8.453125 -9.625 L 8.453125 0 Z M 2.59375 0 "/></g></g></g><g fill="#000000" fill-opacity="1"><g transform="translate(239.381661, 52.088258)"><g><path d="M 7.640625 0.5625 C 6.441406 0.5625 5.382812 0.332031 4.46875 -0.125 C 3.550781 -0.582031 2.828125 -1.25 2.296875 -2.125 C 1.765625 -3.007812 1.5 -4.085938 1.5 -5.359375 C 1.5 -6.847656 1.832031 -8.023438 2.5 -8.890625 C 3.164062 -9.753906 4.019531 -10.414062 5.0625 -10.875 C 6.101562 -11.34375 7.203125 -11.675781 8.359375 -11.875 C 9.523438 -12.082031 10.609375 -12.253906 11.609375 -12.390625 C 12.535156 -12.523438 13.28125 -12.664062 13.84375 -12.8125 C 14.414062 -12.957031 14.828125 -13.171875 15.078125 -13.453125 C 15.335938 -13.742188 15.46875 -14.132812 15.46875 -14.625 C 15.46875 -15.164062 15.34375 -15.640625 15.09375 -16.046875 C 14.851562 -16.453125 14.488281 -16.78125 14 -17.03125 C 13.519531 -17.289062 12.890625 -17.421875 12.109375 -17.421875 C 11.347656 -17.421875 10.628906 -17.285156 9.953125 -17.015625 C 9.273438 -16.742188 8.695312 -16.328125 8.21875 -15.765625 C 7.75 -15.210938 7.429688 -14.519531 7.265625 -13.6875 L 2.078125 -15.140625 C 2.367188 -16.304688 2.816406 -17.304688 3.421875 -18.140625 C 4.035156 -18.984375 4.773438 -19.679688 5.640625 -20.234375 C 6.503906 -20.796875 7.476562 -21.210938 8.5625 -21.484375 C 9.644531 -21.753906 10.828125 -21.890625 12.109375 -21.890625 C 13.753906 -21.890625 15.160156 -21.6875 16.328125 -21.28125 C 17.492188 -20.875 18.429688 -20.253906 19.140625 -19.421875 C 19.859375 -18.597656 20.382812 -17.597656 20.71875 -16.421875 C 21.0625 -15.242188 21.234375 -13.898438 21.234375 -12.390625 L 21.234375 -8.734375 C 21.234375 -7.804688 21.242188 -6.847656 21.265625 -5.859375 C 21.296875 -4.878906 21.34375 -3.898438 21.40625 -2.921875 C 21.476562 -1.953125 21.554688 -0.976562 21.640625 0 L 16.484375 0 C 16.398438 -0.726562 16.3125 -1.53125 16.21875 -2.40625 C 16.125 -3.289062 16.066406 -4.191406 16.046875 -5.109375 L 15.34375 -5.109375 C 14.96875 -4.085938 14.425781 -3.132812 13.71875 -2.25 C 13.019531 -1.375 12.15625 -0.6875 11.125 -0.1875 C 10.09375 0.3125 8.929688 0.5625 7.640625 0.5625 Z M 10.109375 -3.703125 C 10.628906 -3.703125 11.148438 -3.785156 11.671875 -3.953125 C 12.203125 -4.128906 12.71875 -4.394531 13.21875 -4.75 C 13.71875 -5.101562 14.175781 -5.550781 14.59375 -6.09375 C 15.019531 -6.632812 15.351562 -7.242188 15.59375 -7.921875 L 15.515625 -11.125 L 16.453125 -10.96875 C 15.984375 -10.613281 15.429688 -10.332031 14.796875 -10.125 C 14.160156 -9.925781 13.5 -9.769531 12.8125 -9.65625 C 12.125 -9.550781 11.441406 -9.429688 10.765625 -9.296875 C 10.085938 -9.160156 9.476562 -8.984375 8.9375 -8.765625 C 8.394531 -8.554688 7.957031 -8.257812 7.625 -7.875 C 7.300781 -7.5 7.140625 -6.984375 7.140625 -6.328125 C 7.140625 -5.515625 7.414062 -4.875 7.96875 -4.40625 C 8.53125 -3.9375 9.242188 -3.703125 10.109375 -3.703125 Z M 10.109375 -3.703125 "/></g></g></g><g fill="#000000" fill-opacity="1"><g transform="translate(262.972993, 52.088258)"><g><path d="M 2.59375 6.734375 L 2.59375 -21.3125 L 7.46875 -21.3125 L 7.46875 -15.34375 L 8.15625 -15.265625 C 8.425781 -16.734375 8.863281 -17.957031 9.46875 -18.9375 C 10.082031 -19.925781 10.867188 -20.664062 11.828125 -21.15625 C 12.796875 -21.644531 13.929688 -21.890625 15.234375 -21.890625 C 17.097656 -21.890625 18.691406 -21.425781 20.015625 -20.5 C 21.347656 -19.582031 22.367188 -18.273438 23.078125 -16.578125 C 23.796875 -14.890625 24.15625 -12.882812 24.15625 -10.5625 C 24.15625 -8.394531 23.832031 -6.476562 23.1875 -4.8125 C 22.539062 -3.144531 21.578125 -1.832031 20.296875 -0.875 C 19.023438 0.0820312 17.441406 0.5625 15.546875 0.5625 C 14.191406 0.5625 13.046875 0.304688 12.109375 -0.203125 C 11.179688 -0.710938 10.40625 -1.445312 9.78125 -2.40625 C 9.164062 -3.375 8.664062 -4.519531 8.28125 -5.84375 L 7.546875 -5.84375 C 7.710938 -5.082031 7.863281 -4.316406 8 -3.546875 C 8.132812 -2.773438 8.242188 -2.023438 8.328125 -1.296875 C 8.410156 -0.566406 8.453125 0.132812 8.453125 0.8125 L 8.453125 6.734375 Z M 13.515625 -4.140625 C 14.460938 -4.140625 15.273438 -4.410156 15.953125 -4.953125 C 16.628906 -5.492188 17.148438 -6.242188 17.515625 -7.203125 C 17.890625 -8.171875 18.078125 -9.273438 18.078125 -10.515625 C 18.078125 -11.867188 17.882812 -13.023438 17.5 -13.984375 C 17.125 -14.953125 16.582031 -15.695312 15.875 -16.21875 C 15.175781 -16.75 14.351562 -17.015625 13.40625 -17.015625 C 12.539062 -17.015625 11.800781 -16.832031 11.1875 -16.46875 C 10.582031 -16.101562 10.066406 -15.609375 9.640625 -14.984375 C 9.222656 -14.359375 8.921875 -13.691406 8.734375 -12.984375 C 8.546875 -12.285156 8.453125 -11.597656 8.453125 -10.921875 L 8.453125 -10.1875 C 8.453125 -9.625 8.519531 -9.0625 8.65625 -8.5 C 8.789062 -7.945312 9 -7.410156 9.28125 -6.890625 C 9.5625 -6.378906 9.90625 -5.914062 10.3125 -5.5 C 10.71875 -5.082031 11.191406 -4.75 11.734375 -4.5 C 12.273438 -4.257812 12.867188 -4.140625 13.515625 -4.140625 Z M 13.515625 -4.140625 "/></g></g></g><g fill="#000000" fill-opacity="1"><g transform="translate(288.635169, 52.088258)"><g><path d="M 2.59375 6.734375 L 2.59375 -21.3125 L 7.46875 -21.3125 L 7.46875 -15.34375 L 8.15625 -15.265625 C 8.425781 -16.734375 8.863281 -17.957031 9.46875 -18.9375 C 10.082031 -19.925781 10.867188 -20.664062 11.828125 -21.15625 C 12.796875 -21.644531 13.929688 -21.890625 15.234375 -21.890625 C 17.097656 -21.890625 18.691406 -21.425781 20.015625 -20.5 C 21.347656 -19.582031 22.367188 -18.273438 23.078125 -16.578125 C 23.796875 -14.890625 24.15625 -12.882812 24.15625 -10.5625 C 24.15625 -8.394531 23.832031 -6.476562 23.1875 -4.8125 C 22.539062 -3.144531 21.578125 -1.832031 20.296875 -0.875 C 19.023438 0.0820312 17.441406 0.5625 15.546875 0.5625 C 14.191406 0.5625 13.046875 0.304688 12.109375 -0.203125 C 11.179688 -0.710938 10.40625 -1.445312 9.78125 -2.40625 C 9.164062 -3.375 8.664062 -4.519531 8.28125 -5.84375 L 7.546875 -5.84375 C 7.710938 -5.082031 7.863281 -4.316406 8 -3.546875 C 8.132812 -2.773438 8.242188 -2.023438 8.328125 -1.296875 C 8.410156 -0.566406 8.453125 0.132812 8.453125 0.8125 L 8.453125 6.734375 Z M 13.515625 -4.140625 C 14.460938 -4.140625 15.273438 -4.410156 15.953125 -4.953125 C 16.628906 -5.492188 17.148438 -6.242188 17.515625 -7.203125 C 17.890625 -8.171875 18.078125 -9.273438 18.078125 -10.515625 C 18.078125 -11.867188 17.882812 -13.023438 17.5 -13.984375 C 17.125 -14.953125 16.582031 -15.695312 15.875 -16.21875 C 15.175781 -16.75 14.351562 -17.015625 13.40625 -17.015625 C 12.539062 -17.015625 11.800781 -16.832031 11.1875 -16.46875 C 10.582031 -16.101562 10.066406 -15.609375 9.640625 -14.984375 C 9.222656 -14.359375 8.921875 -13.691406 8.734375 -12.984375 C 8.546875 -12.285156 8.453125 -11.597656 8.453125 -10.921875 L 8.453125 -10.1875 C 8.453125 -9.625 8.519531 -9.0625 8.65625 -8.5 C 8.789062 -7.945312 9 -7.410156 9.28125 -6.890625 C 9.5625 -6.378906 9.90625 -5.914062 10.3125 -5.5 C 10.71875 -5.082031 11.191406 -4.75 11.734375 -4.5 C 12.273438 -4.257812 12.867188 -4.140625 13.515625 -4.140625 Z M 13.515625 -4.140625 "/></g></g></g><g fill="#3add3a" fill-opacity="1"><g transform="translate(229.952962, 52.088258)"><g><path d="M 4.671875 0.53125 C 3.398438 0.53125 2.453125 0.257812 1.828125 -0.28125 C 1.203125 -0.820312 0.890625 -1.660156 0.890625 -2.796875 C 0.890625 -3.960938 1.203125 -4.816406 1.828125 -5.359375 C 2.453125 -5.898438 3.398438 -6.171875 4.671875 -6.171875 C 5.972656 -6.171875 6.941406 -5.898438 7.578125 -5.359375 C 8.210938 -4.816406 8.53125 -3.960938 8.53125 -2.796875 C 8.53125 -0.578125 7.242188 0.53125 4.671875 0.53125 Z M 4.671875 0.53125 "/></g></g></g></svg>